<?xml version="1.0" encoding="UTF-8" standalone="no"?>
<svg viewBox="0 0 383.41708 187.69553" xmlns="http://www.w3.org/2000/svg">
<title>Balance</title>
<g transform="translate(-157.69935,-468.3491)">
<path d="m243.80952,546.09104 202.6701.24245-.78044,11.829c-125.03793,22.55502-143.64017,3.57417-203.22195.58533z" fill="#fff" stroke="#000" stroke-linecap="round" stroke-linejoin="round"/>
<path d="m334.21031,481.6977-7.1325,113.68816 44.04646,2.11273-7.60353-116.46704c-5.09592-16.64725-23.47214-14.67366-29.31043.66615z" fill="#fff" stroke="#000" stroke-linecap="round" stroke-linejoin="round" stroke-width="2"/>
<path d="m461.63934,566.74158-.1951,24.64741h9.79708l-.94208-23.98127z" fill="#fff" stroke="#000" stroke-linecap="round" stroke-linejoin="round"/>
<path d="m190.29875,631.25553v19.78353h320.30484l.94207-18.84146z" fill="#ccc" stroke="#ccc" stroke-linecap="round" stroke-linejoin="round"/>
<path d="m210.70715,591.22735-17.4398,25.12615-11.58451,6.68168 .74287,31.29483 16.35236.45832 10.3628-11.31431 277.9114-.19601 9.41972,11.76661 19.88125-.0119 .67997-31.93031-8.87911-4.36169-13.13353-26.59715z" fill="#fff" stroke="#000" stroke-linecap="round" stroke-linejoin="round" stroke-width="2"/>
<path d="m443.72035,534.7604 .94207,27.92099c-.34031,3.65803 1.08461,5.55084 4.31954,5.63365l31.96921-.21158c2.8819-.37418 4.84618-1.66598 5.06947-4.69877l.0906-28.64429z" fill="#fff" stroke="#000" stroke-linecap="round" stroke-linejoin="round"/>
<path d="m390.59028,506.91043 .14674,11.07518 12.39576,16.02783 122.58477.0808 14.02658-15.92559 .37231-11.32519z" fill="#fff" stroke="#000" stroke-linecap="round" stroke-linejoin="round" stroke-width="2"/>
<path d="m214.7966,534.7604v28.97736c.19209,2.36229 1.29035,4.81763 4.70116,4.29428l33.63781-.2974c2.64275-.01 3.98312-1.32234 3.96132-3.99688l.0906-28.97736z" fill="#fff" stroke="#000" stroke-linecap="round" stroke-linejoin="round"/>
<path d="m231.81889,568.07387 .47104,22.37305h9.99219l-.47104-22.37305z" fill="#fff" stroke="#000" stroke-linecap="round" stroke-linejoin="round"/>
<path d="m338.87333,484.08635-1.99844,31.78566h24.64741l-2.19354-32.72773c-5.0263-15.6257-19.19742-7.29972-20.45543.94207z" fill="#fff" stroke="#000" stroke-linecap="round" stroke-linejoin="round"/>
<path d="m183.19022,622.03171 334.40541.66615" fill="#fff" stroke="#000" stroke-linecap="round" stroke-linejoin="round"/>
<path d="m345.86786,515.69639 2.33152-27.96989 2.20169.0155 2.46133,27.98159z" fill="#fff" stroke="#000" stroke-linecap="round" stroke-linejoin="round"/>
<path d="m361.7174,557.08246c0,6.07039-5.07015,10.99141-11.32449,10.99141s-11.32448-4.92102-11.32448-10.99141 5.07014-10.99141 11.32448-10.99141 11.32449,4.92102 11.32449,10.99141z" fill="#fff" stroke="#000" stroke-linecap="round" stroke-linejoin="round" stroke-width="1.37467" transform="matrix(.72762,0,0,.72727,94.54841,151.01318)"/>
<path d="m390.01824,518.20677 148.84754-1e-005" fill="#fff" stroke="#000" stroke-linecap="round" stroke-linejoin="round"/>
<path d="m216.01063,536.03329v5.60304h39.37046l.11579-5.33623z" fill="#ccc" stroke="#ccc" stroke-linecap="round" stroke-linejoin="round"/>
<path d="m445.07232,536.03329v5.60305h39.70255l.11677-5.33624z" fill="#ccc" stroke="#ccc" stroke-linecap="round" stroke-linejoin="round"/>
<path d="m158.77139,506.91043 .14674,11.07518 12.39576,16.02783 122.58477.0808 14.02658-15.92559 .37231-11.32519z" fill="#fff" stroke="#000" stroke-linecap="round" stroke-linejoin="round" stroke-width="2"/>
<path d="m158.19935,518.20677 148.84754-1e-005" fill="#fff" stroke="#000" stroke-linecap="round" stroke-linejoin="round"/>
</g>
</svg>
